{
	"asset":{
		"generator":"Khronos glTF Blender I/O v3.5.30",
		"version":"2.0"
	},
	"scene":0,
	"scenes":[
		{
			"name":"Scene",
			"nodes":[
				3,
				7,
				11,
				15
			]
		}
	],
	"nodes":[
		{
			"mesh":0,
			"name":"00-Local",
			"translation":[
				0,
				25,
				0
			]
		},
		{
			"children":[
				0
			],
			"name":"00-Global"
		},
		{
			"name":"World-Local"
		},
		{
			"children":[
				1,
				2
			],
			"name":"World-Global",
			"rotation":[
				0,
				0,
				-1,
				0
			],
			"scale":[
				-1,
				-1,
				-1
			],
			"translation":[
				0,
				0,
				25
			]
		},
		{
			"mesh":1,
			"name":"00-Local.001",
			"translation":[
				0,
				25,
				0
			]
		},
		{
			"children":[
				4
			],
			"name":"00-Global.001"
		},
		{
			"name":"World-Local.001"
		},
		{
			"children":[
				5,
				6
			],
			"name":"World-Global.001",
			"rotation":[
				0,
				0,
				-1,
				0
			],
			"scale":[
				-1,
				-1,
				-1
			],
			"translation":[
				0,
				0,
				-25
			]
		},
		{
			"mesh":2,
			"name":"00-Local.002",
			"translation":[
				0,
				25,
				0
			]
		},
		{
			"children":[
				8
			],
			"name":"00-Global.002"
		},
		{
			"name":"World-Local.002"
		},
		{
			"children":[
				9,
				10
			],
			"name":"World-Global.002",
			"rotation":[
				1,
				0,
				0,
				0
			],
			"scale":[
				-1,
				-1,
				-1
			],
			"translation":[
				50,
				0,
				25
			]
		},
		{
			"mesh":3,
			"name":"00-Local.003",
			"translation":[
				0,
				25,
				0
			]
		},
		{
			"children":[
				12
			],
			"name":"00-Global.003"
		},
		{
			"name":"World-Local.003"
		},
		{
			"children":[
				13,
				14
			],
			"name":"World-Global.003",
			"rotation":[
				1,
				0,
				0,
				0
			],
			"scale":[
				-1,
				-1,
				-1
			],
			"translation":[
				50,
				0,
				-25
			]
		}
	],
	"materials":[
		{
			"emissiveFactor":[
				1,
				1,
				1
			],
			"emissiveTexture":{
				"index":0,
				"texCoord":1
			},
			"name":"00-Material.004",
			"pbrMetallicRoughness":{
				"baseColorTexture":{
					"index":1
				},
				"metallicFactor":0
			}
		},
		{
			"emissiveFactor":[
				1,
				1,
				1
			],
			"emissiveTexture":{
				"index":2,
				"texCoord":1
			},
			"name":"00-Material.005",
			"pbrMetallicRoughness":{
				"baseColorTexture":{
					"index":3
				},
				"metallicFactor":0
			}
		},
		{
			"emissiveFactor":[
				1,
				1,
				1
			],
			"emissiveTexture":{
				"index":4,
				"texCoord":1
			},
			"name":"00-Material.006",
			"pbrMetallicRoughness":{
				"baseColorTexture":{
					"index":5
				},
				"metallicFactor":0
			}
		},
		{
			"emissiveFactor":[
				1,
				1,
				1
			],
			"emissiveTexture":{
				"index":6,
				"texCoord":1
			},
			"name":"00-Material.007",
			"pbrMetallicRoughness":{
				"baseColorTexture":{
					"index":7
				},
				"metallicFactor":0
			}
		}
	],
	"meshes":[
		{
			"name":"00-Mesh.004",
			"primitives":[
				{
					"attributes":{
						"POSITION":0,
						"TEXCOORD_0":1,
						"TEXCOORD_1":2,
						"NORMAL":3
					},
					"indices":4,
					"material":0
				}
			]
		},
		{
			"name":"00-Mesh.005",
			"primitives":[
				{
					"attributes":{
						"POSITION":5,
						"TEXCOORD_0":6,
						"TEXCOORD_1":7,
						"NORMAL":8
					},
					"indices":4,
					"material":1
				}
			]
		},
		{
			"name":"00-Mesh.006",
			"primitives":[
				{
					"attributes":{
						"POSITION":9,
						"TEXCOORD_0":10,
						"TEXCOORD_1":11,
						"NORMAL":12
					},
					"indices":4,
					"material":2
				}
			]
		},
		{
			"name":"00-Mesh.007",
			"primitives":[
				{
					"attributes":{
						"POSITION":13,
						"TEXCOORD_0":14,
						"TEXCOORD_1":15,
						"NORMAL":16
					},
					"indices":4,
					"material":3
				}
			]
		}
	],
	"textures":[
		{
			"sampler":0,
			"source":0
		},
		{
			"sampler":0,
			"source":1
		},
		{
			"sampler":0,
			"source":0
		},
		{
			"sampler":0,
			"source":2
		},
		{
			"sampler":0,
			"source":0
		},
		{
			"sampler":0,
			"source":3
		},
		{
			"sampler":0,
			"source":0
		},
		{
			"sampler":0,
			"source":4
		}
	],
	"images":[
		{
			"bufferView":5,
			"mimeType":"image/png",
			"name":"Image_1"
		},
		{
			"bufferView":6,
			"mimeType":"image/png",
			"name":"Image_0"
		},
		{
			"bufferView":11,
			"mimeType":"image/png",
			"name":"Image_0"
		},
		{
			"bufferView":16,
			"mimeType":"image/png",
			"name":"Image_0"
		},
		{
			"bufferView":21,
			"mimeType":"image/png",
			"name":"Image_0"
		}
	],
	"accessors":[
		{
			"bufferView":0,
			"componentType":5126,
			"count":1530,
			"max":[
				25,
				25,
				25
			],
			"min":[
				-25,
				-25,
				-25
			],
			"type":"VEC3"
		},
		{
			"bufferView":1,
			"componentType":5126,
			"count":1530,
			"type":"VEC2"
		},
		{
			"bufferView":2,
			"componentType":5126,
			"count":1530,
			"type":"VEC2"
		},
		{
			"bufferView":3,
			"componentType":5126,
			"count":1530,
			"type":"VEC3"
		},
		{
			"bufferView":4,
			"componentType":5123,
			"count":1530,
			"type":"SCALAR"
		},
		{
			"bufferView":7,
			"componentType":5126,
			"count":1530,
			"max":[
				25,
				25,
				25
			],
			"min":[
				-25,
				-25,
				-25
			],
			"type":"VEC3"
		},
		{
			"bufferView":8,
			"componentType":5126,
			"count":1530,
			"type":"VEC2"
		},
		{
			"bufferView":9,
			"componentType":5126,
			"count":1530,
			"type":"VEC2"
		},
		{
			"bufferView":10,
			"componentType":5126,
			"count":1530,
			"type":"VEC3"
		},
		{
			"bufferView":12,
			"componentType":5126,
			"count":1530,
			"max":[
				25,
				25,
				25
			],
			"min":[
				-25,
				-25,
				-25
			],
			"type":"VEC3"
		},
		{
			"bufferView":13,
			"componentType":5126,
			"count":1530,
			"type":"VEC2"
		},
		{
			"bufferView":14,
			"componentType":5126,
			"count":1530,
			"type":"VEC2"
		},
		{
			"bufferView":15,
			"componentType":5126,
			"count":1530,
			"type":"VEC3"
		},
		{
			"bufferView":17,
			"componentType":5126,
			"count":1530,
			"max":[
				25,
				25,
				25
			],
			"min":[
				-25,
				-25,
				-25
			],
			"type":"VEC3"
		},
		{
			"bufferView":18,
			"componentType":5126,
			"count":1530,
			"type":"VEC2"
		},
		{
			"bufferView":19,
			"componentType":5126,
			"count":1530,
			"type":"VEC2"
		},
		{
			"bufferView":20,
			"componentType":5126,
			"count":1530,
			"type":"VEC3"
		}
	],
	"bufferViews":[
		{
			"buffer":0,
			"byteLength":18360,
			"byteOffset":0,
			"target":34962
		},
		{
			"buffer":0,
			"byteLength":12240,
			"byteOffset":18360,
			"target":34962
		},
		{
			"buffer":0,
			"byteLength":12240,
			"byteOffset":30600,
			"target":34962
		},
		{
			"buffer":0,
			"byteLength":18360,
			"byteOffset":42840,
			"target":34962
		},
		{
			"buffer":0,
			"byteLength":3060,
			"byteOffset":61200,
			"target":34963
		},
		{
			"buffer":0,
			"byteLength":237,
			"byteOffset":64260
		},
		{
			"buffer":0,
			"byteLength":242,
			"byteOffset":64500
		},
		{
			"buffer":0,
			"byteLength":18360,
			"byteOffset":64744,
			"target":34962
		},
		{
			"buffer":0,
			"byteLength":12240,
			"byteOffset":83104,
			"target":34962
		},
		{
			"buffer":0,
			"byteLength":12240,
			"byteOffset":95344,
			"target":34962
		},
		{
			"buffer":0,
			"byteLength":18360,
			"byteOffset":107584,
			"target":34962
		},
		{
			"buffer":0,
			"byteLength":241,
			"byteOffset":125944
		},
		{
			"buffer":0,
			"byteLength":18360,
			"byteOffset":126188,
			"target":34962
		},
		{
			"buffer":0,
			"byteLength":12240,
			"byteOffset":144548,
			"target":34962
		},
		{
			"buffer":0,
			"byteLength":12240,
			"byteOffset":156788,
			"target":34962
		},
		{
			"buffer":0,
			"byteLength":18360,
			"byteOffset":169028,
			"target":34962
		},
		{
			"buffer":0,
			"byteLength":241,
			"byteOffset":187388
		},
		{
			"buffer":0,
			"byteLength":18360,
			"byteOffset":187632,
			"target":34962
		},
		{
			"buffer":0,
			"byteLength":12240,
			"byteOffset":205992,
			"target":34962
		},
		{
			"buffer":0,
			"byteLength":12240,
			"byteOffset":218232,
			"target":34962
		},
		{
			"buffer":0,
			"byteLength":18360,
			"byteOffset":230472,
			"target":34962
		},
		{
			"buffer":0,
			"byteLength":242,
			"byteOffset":248832
		}
	],
	"samplers":[
		{
			"magFilter":9728,
			"minFilter":9984,
			"wrapS":33071,
			"wrapT":33071
		}
	],
	"buffers":[
		{
			"byteLength":249076,
			"uri":"data:application/octet-stream;base64,"
		}
	]
}
