{
	"asset":{
		"generator":"Khronos glTF Blender I/O v3.5.30",
		"version":"2.0"
	},
	"scene":0,
	"scenes":[
		{
			"name":"Scene",
			"nodes":[
				3
			]
		}
	],
	"nodes":[
		{
			"mesh":0,
			"name":"00-Local",
			"translation":[
				0,
				50,
				0
			]
		},
		{
			"children":[
				0
			],
			"name":"00-Global"
		},
		{
			"name":"World-Local"
		},
		{
			"children":[
				1,
				2
			],
			"name":"World-Global",
			"rotation":[
				0,
				0,
				-1,
				0
			],
			"scale":[
				-1,
				-1,
				-1
			]
		}
	],
	"materials":[
		{
			"emissiveFactor":[
				1,
				1,
				1
			],
			"emissiveTexture":{
				"index":0,
				"texCoord":1
			},
			"name":"00-Material.001",
			"pbrMetallicRoughness":{
				"baseColorTexture":{
					"index":1
				},
				"metallicFactor":0
			}
		}
	],
	"meshes":[
		{
			"name":"00-Mesh.001",
			"primitives":[
				{
					"attributes":{
						"POSITION":0,
						"TEXCOORD_0":1,
						"TEXCOORD_1":2,
						"NORMAL":3
					},
					"indices":4,
					"material":0
				}
			]
		}
	],
	"textures":[
		{
			"sampler":0,
			"source":0
		},
		{
			"sampler":0,
			"source":1
		}
	],
	"images":[
		{
			"mimeType":"image/png",
			"name":"Image_1",
			"uri":"Image_1.png"
		},
		{
			"mimeType":"image/png",
			"name":"Image_0",
			"uri":"Image_0.png"
		}
	],
	"accessors":[
		{
			"bufferView":0,
			"componentType":5126,
			"count":80430,
			"max":[
				50,
				50,
				50
			],
			"min":[
				-50,
				-50,
				-50
			],
			"type":"VEC3"
		},
		{
			"bufferView":1,
			"componentType":5126,
			"count":80430,
			"type":"VEC2"
		},
		{
			"bufferView":2,
			"componentType":5126,
			"count":80430,
			"type":"VEC2"
		},
		{
			"bufferView":3,
			"componentType":5126,
			"count":80430,
			"type":"VEC3"
		},
		{
			"bufferView":4,
			"componentType":5125,
			"count":80430,
			"type":"SCALAR"
		}
	],
	"bufferViews":[
		{
			"buffer":0,
			"byteLength":965160,
			"byteOffset":0,
			"target":34962
		},
		{
			"buffer":0,
			"byteLength":643440,
			"byteOffset":965160,
			"target":34962
		},
		{
			"buffer":0,
			"byteLength":643440,
			"byteOffset":1608600,
			"target":34962
		},
		{
			"buffer":0,
			"byteLength":965160,
			"byteOffset":2252040,
			"target":34962
		},
		{
			"buffer":0,
			"byteLength":321720,
			"byteOffset":3217200,
			"target":34963
		}
	],
	"samplers":[
		{
			"magFilter":9728,
			"minFilter":9984,
			"wrapS":33071,
			"wrapT":33071
		}
	],
	"buffers":[
		{
			"byteLength":3538920,
			"uri":"chunk1.bin"
		}
	]
}
