{
	"asset":{
		"generator":"Khronos glTF Blender I/O v3.5.30",
		"version":"2.0"
	},
	"scene":0,
	"scenes":[
		{
			"name":"Scene",
			"nodes":[
				0
			]
		}
	],
	"nodes":[
		{
			"mesh":0,
			"name":"00-Local.001",
			"rotation":[
				0,
				0,
				-1,
				0
			],
			"scale":[
				-1,
				-1,
				-1
			],
			"translation":[
				0,
				25,
				0
			]
		}
	],
	"materials":[
		{
			"emissiveFactor":[
				1,
				1,
				1
			],
			"emissiveTexture":{
				"index":0,
				"texCoord":1
			},
			"name":"00-Material.005",
			"pbrMetallicRoughness":{
				"baseColorTexture":{
					"index":1
				},
				"metallicFactor":0
			}
		}
	],
	"meshes":[
		{
			"name":"00-Mesh.005",
			"primitives":[
				{
					"attributes":{
						"POSITION":0,
						"TEXCOORD_0":1,
						"TEXCOORD_1":2,
						"NORMAL":3
					},
					"indices":4,
					"material":0
				}
			]
		}
	],
	"textures":[
		{
			"sampler":0,
			"source":0
		},
		{
			"sampler":0,
			"source":1
		}
	],
	"images":[
		{
			"mimeType":"image/png",
			"name":"Image_1",
			"uri":"Image_1.png"
		},
		{
			"mimeType":"image/png",
			"name":"Image_0-1",
			"uri":"Image_0-1.png"
		}
	],
	"accessors":[
		{
			"bufferView":0,
			"componentType":5126,
			"count":1530,
			"max":[
				25,
				25,
				25
			],
			"min":[
				-25,
				-25,
				-25
			],
			"type":"VEC3"
		},
		{
			"bufferView":1,
			"componentType":5126,
			"count":1530,
			"type":"VEC2"
		},
		{
			"bufferView":2,
			"componentType":5126,
			"count":1530,
			"type":"VEC2"
		},
		{
			"bufferView":3,
			"componentType":5126,
			"count":1530,
			"type":"VEC3"
		},
		{
			"bufferView":4,
			"componentType":5123,
			"count":1530,
			"type":"SCALAR"
		}
	],
	"bufferViews":[
		{
			"buffer":0,
			"byteLength":18360,
			"byteOffset":0,
			"target":34962
		},
		{
			"buffer":0,
			"byteLength":12240,
			"byteOffset":18360,
			"target":34962
		},
		{
			"buffer":0,
			"byteLength":12240,
			"byteOffset":30600,
			"target":34962
		},
		{
			"buffer":0,
			"byteLength":18360,
			"byteOffset":42840,
			"target":34962
		},
		{
			"buffer":0,
			"byteLength":3060,
			"byteOffset":61200,
			"target":34963
		}
	],
	"samplers":[
		{
			"magFilter":9728,
			"minFilter":9984,
			"wrapS":33071,
			"wrapT":33071
		}
	],
	"buffers":[
		{
			"byteLength":64260,
			"uri":"chunk2.bin"
		}
	]
}
